<svg width="37" height="37" viewBox="0 0 37 37" fill="none" xmlns="http://www.w3.org/2000/svg">
<path d="M28.2931 2.42263C27.9309 3.11097 27.4352 4.00963 26.768 5.2907C25.7958 7.16451 23.8323 7.75724 21.7925 7.73812H9.00112C8.67704 7.73812 8.41016 8.00581 8.41016 8.33085V14.9274C8.41016 14.9274 15.5017 14.9274 16.7789 14.9274C19.8099 14.9274 21.8497 14.1435 23.1651 11.5431C24.5757 8.7515 26.8061 7.75724 29.8753 7.75724C32.5251 7.75724 36.2043 7.75724 36.2043 7.75724V0.548828H31.3432C30.085 0.548828 28.9031 1.27541 28.2931 2.42263Z" fill="white"/>
<path d="M19.8677 16.7625C19.5055 17.4508 19.0099 18.3495 18.3427 19.6305C17.3704 21.5044 15.4069 22.0971 13.3672 22.078H1.07143C0.747353 22.078 0.480469 22.3457 0.480469 22.6707V29.2673C0.480469 29.2673 7.07633 29.2673 8.35356 29.2673C11.3846 29.2673 13.4244 28.4833 14.7397 25.8829C16.1504 23.0914 18.3808 22.0971 21.45 22.0971C24.0998 22.0971 36.2239 22.0971 36.2239 22.0971V14.8887H22.9369C21.6597 14.8887 20.4777 15.6152 19.8677 16.7625Z" fill="white"/>
<path d="M29.0938 32.7648V36.436H36.2424V29.2658H32.5823C30.6569 29.2467 29.0938 30.8146 29.0938 32.7648Z" fill="white"/>
</svg>
