<svg width="101" height="35" viewBox="0 0 101 35" fill="none" xmlns="http://www.w3.org/2000/svg">
<path d="M37.3965 15.6265L42.661 1.35547H45.4171L50.6651 15.6265H48.1896L46.8694 12.0964H41.0932L39.7895 15.6265H37.3965ZM41.7368 10.1055H46.2257L43.9813 3.88176L41.7368 10.1055Z" fill="white"/>
<path d="M50.6484 10.4232C50.6484 7.19423 52.6948 5.05273 55.814 5.05273C58.471 5.05273 60.1213 6.54174 60.5339 8.90073H58.2564C57.9759 7.67941 57.1177 6.92654 55.7645 6.92654C54.0151 6.92654 52.8764 8.34862 52.8764 10.4065C52.8764 12.4476 54.0151 13.8529 55.7645 13.8529C57.0847 13.8529 57.9759 13.0833 58.2399 11.8787H60.5339C60.1378 14.2377 58.3885 15.7267 55.7479 15.7267C52.6288 15.7435 50.6484 13.6856 50.6484 10.4232Z" fill="white"/>
<path d="M61.4277 10.4232C61.4277 7.19423 63.4576 5.05273 66.4942 5.05273C69.4648 5.05273 71.4617 6.97673 71.5277 10.0217C71.5277 10.2894 71.5112 10.5738 71.4617 10.8582H63.7052V11.0088C63.7712 12.7822 64.8769 13.9366 66.5768 13.9366C67.897 13.9366 68.8707 13.2674 69.1678 12.0962H71.3462C70.9831 14.1541 69.2503 15.7267 66.6923 15.7267C63.4576 15.7435 61.4277 13.6354 61.4277 10.4232ZM69.2668 9.2688C69.0853 7.71287 68.0125 6.84289 66.5107 6.84289C65.1245 6.84289 63.9362 7.77979 63.7712 9.2688H69.2668Z" fill="white"/>
<path d="M26.918 29.5462V32.7584H33.1067V26.4845H29.9381C28.2712 26.4678 26.918 27.8397 26.918 29.5462Z" fill="white"/>
<path d="M18.9303 15.5419C18.6167 16.1442 18.1877 16.9305 17.61 18.0515C16.7684 19.6911 15.0685 20.2097 13.3027 20.193H2.65809C2.37753 20.193 2.14648 20.4272 2.14648 20.7116V26.4836C2.14648 26.4836 7.85662 26.4836 8.96233 26.4836C11.5864 26.4836 13.3522 25.7977 14.4909 23.5223C15.7122 21.0797 17.6431 20.2097 20.3001 20.2097C22.594 20.2097 33.0901 20.2097 33.0901 20.2097V13.9023H21.5873C20.4816 13.9023 19.4584 14.5381 18.9303 15.5419Z" fill="white"/>
<path d="M26.2246 2.99505C25.9111 3.59734 25.482 4.38367 24.9044 5.50461C24.0627 7.14419 22.3629 7.66283 20.597 7.6461H9.52332C9.24276 7.6461 9.01172 7.88032 9.01172 8.16474V13.9367C9.01172 13.9367 15.1509 13.9367 16.2567 13.9367C18.8807 13.9367 20.6465 13.2508 21.7852 10.9754C23.0065 8.53281 24.9374 7.66283 27.5944 7.66283C29.8884 7.66283 33.0735 7.66283 33.0735 7.66283V1.35547H28.8652C27.7759 1.35547 26.7527 1.99122 26.2246 2.99505Z" fill="white"/>
<path d="M26.2246 2.99505C25.9111 3.59734 25.482 4.38367 24.9044 5.50461C24.0627 7.14419 22.3629 7.66283 20.597 7.6461H9.52332C9.24276 7.6461 9.01172 7.88032 9.01172 8.16474V13.9367C9.01172 13.9367 15.1509 13.9367 16.2567 13.9367C18.8807 13.9367 20.6465 13.2508 21.7852 10.9754C23.0065 8.53281 24.9374 7.66283 27.5944 7.66283C29.8884 7.66283 33.0735 7.66283 33.0735 7.66283V1.35547H28.8652C27.7759 1.35547 26.7527 1.99122 26.2246 2.99505Z" fill="white"/>
<path d="M18.9303 15.5419C18.6167 16.1442 18.1877 16.9305 17.61 18.0515C16.7684 19.6911 15.0685 20.2097 13.3027 20.193H2.65809C2.37753 20.193 2.14648 20.4272 2.14648 20.7116V26.4836C2.14648 26.4836 7.85662 26.4836 8.96233 26.4836C11.5864 26.4836 13.3522 25.7977 14.4909 23.5223C15.7122 21.0797 17.6431 20.2097 20.3001 20.2097C22.594 20.2097 33.0901 20.2097 33.0901 20.2097V13.9023H21.5873C20.4816 13.9023 19.4584 14.5381 18.9303 15.5419Z" fill="white"/>
<path d="M26.918 29.5462V32.7584H33.1067V26.4845H29.9381C28.2712 26.4678 26.918 27.8397 26.918 29.5462Z" fill="white"/>
<path d="M38.9805 32.7751V19.2402H40.0037V31.8048H46.3904V32.7751H38.9805Z" fill="white"/>
<path d="M56.5062 31.8723V32.7757H55.9286C54.7898 32.7757 54.3112 32.2738 54.3443 31.1194V30.7681C53.7501 31.9894 52.5949 32.8929 50.631 32.8929C48.5681 32.8929 47.2148 31.8221 47.2148 30.0822C47.2148 28.2418 48.5516 27.1543 51.0271 27.1543H54.3112V26.3011C54.3112 24.6782 53.288 23.7079 51.4727 23.7079C49.8389 23.7079 48.7992 24.4942 48.5516 25.6988H47.5779C47.8255 23.9254 49.2943 22.8379 51.5057 22.8379C53.9317 22.8379 55.2849 24.0927 55.2849 26.3345V30.9019C55.2849 31.6548 55.5655 31.8556 56.1431 31.8556H56.5062V31.8723ZM54.3112 28.0243H50.9611C49.1622 28.0243 48.2215 28.7437 48.2215 30.032C48.2215 31.2533 49.1787 32.0396 50.7135 32.0396C53.0075 32.0396 54.3112 30.6844 54.3112 28.8106V28.0243Z" fill="white"/>
<path d="M67.0359 27.8731C67.0359 30.8511 65.1215 32.909 62.481 32.909C60.6656 32.909 59.3784 31.9888 58.8007 30.5667L58.6522 32.7919H57.8105V19.2402H58.7842V25.2632C59.3949 23.8746 60.6656 22.8707 62.481 22.8707C65.138 22.854 67.0359 24.7947 67.0359 27.8731ZM66.0457 27.8731C66.0457 25.4639 64.5604 23.7407 62.3985 23.7407C60.2365 23.7407 58.7512 25.4639 58.7512 27.8564C58.7512 30.3158 60.2365 32.0223 62.3985 32.0223C64.5604 32.0055 66.0457 30.299 66.0457 27.8731Z" fill="white"/>
<path d="M68.6035 27.8077C68.6035 24.9133 70.4189 22.8555 73.0594 22.8555C75.6504 22.8555 77.4328 24.562 77.5318 27.4731C77.5318 27.5902 77.5153 27.7407 77.5153 27.8746H69.6102V28.0419C69.6432 30.3172 70.9965 31.9903 73.1584 31.9903C74.7427 31.9903 76.0135 31.0366 76.4096 29.5142H77.3998C76.9872 31.4884 75.3533 32.877 73.2409 32.877C70.4849 32.8937 68.6035 30.8861 68.6035 27.8077ZM76.4756 27.0548C76.327 24.9133 74.9738 23.7254 73.0759 23.7254C71.2935 23.7254 69.8248 25.0639 69.6762 27.0548H76.4756Z" fill="white"/>
<path d="M79.4668 19.2402H80.4405V32.7751H79.4668V19.2402Z" fill="white"/>
<path d="M87.0547 32.7751L92.2202 19.2402H93.4249L98.574 32.7751H97.4682L95.8674 28.6427H89.7282L88.1274 32.7751H87.0547ZM90.0253 27.6724H95.5539L92.7813 20.3946L90.0253 27.6724Z" fill="white"/>
</svg>
